<svg 
 xmlns="http://www.w3.org/2000/svg"
 xmlns:xlink="http://www.w3.org/1999/xlink"
 width="138px" height="35px">
<path fill-rule="evenodd"  fill="#ffffff"
 d="M17.413,0.097 C11.721,0.097 6.668,2.833 3.496,7.061 C3.720,7.078 3.944,7.088 4.170,7.088 L8.339,7.088 C10.108,7.088 11.802,6.540 13.364,5.711 C13.840,5.458 14.380,5.309 14.954,5.296 C16.906,5.251 18.588,6.865 18.622,8.817 C18.656,10.826 17.038,12.465 15.038,12.465 C14.425,12.465 13.849,12.311 13.345,12.040 C11.413,11.002 9.314,10.314 7.121,10.314 L5.389,10.314 C3.959,10.314 2.570,10.610 1.241,11.101 C0.460,13.078 0.026,15.230 0.026,17.484 C0.026,19.780 0.476,21.971 1.285,23.978 C2.049,24.178 2.833,24.295 3.633,24.295 L7.802,24.295 C9.570,24.295 11.265,23.747 12.826,22.918 C13.302,22.665 13.842,22.516 14.416,22.503 C16.368,22.458 18.051,24.072 18.084,26.024 C18.119,28.033 16.501,29.672 14.500,29.672 C13.888,29.672 13.311,29.518 12.807,29.247 C10.876,28.209 8.776,27.521 6.583,27.521 L4.852,27.521 C4.329,27.521 3.813,27.562 3.302,27.636 C6.459,32.016 11.601,34.870 17.413,34.870 C27.015,34.870 34.799,27.086 34.799,17.484 C34.799,7.882 27.015,0.097 17.413,0.097 Z"/>
<path fill-rule="evenodd"  fill="#039a72"
 d="M26.304,21.484 C25.590,21.484 24.919,21.302 24.332,20.981 C22.081,19.751 19.635,18.936 17.080,18.936 L15.062,18.936 C12.507,18.936 10.061,19.751 7.810,20.981 C7.223,21.302 6.552,21.484 5.838,21.484 C3.507,21.484 1.622,19.542 1.662,17.162 C1.701,14.849 3.662,12.936 5.936,12.989 C6.604,13.005 7.233,13.181 7.788,13.480 C9.608,14.463 11.582,15.112 13.642,15.112 L18.500,15.112 C20.560,15.112 22.534,14.463 24.354,13.480 C24.909,13.181 25.538,13.005 26.206,12.989 C28.480,12.936 30.441,14.849 30.480,17.162 C30.520,19.542 28.635,21.484 26.304,21.484 Z"/>
<path fill-rule="evenodd"  fill="#ffffff"
 d="M26.266,18.812 C25.377,18.812 24.656,18.092 24.656,17.203 C24.656,16.314 25.377,15.594 26.266,15.594 C27.154,15.594 27.875,16.314 27.875,17.203 C27.875,18.092 27.154,18.812 26.266,18.812 ZM15.031,10.250 C14.134,10.250 13.406,9.536 13.406,8.656 C13.406,7.776 14.134,7.063 15.031,7.063 C15.929,7.063 16.656,7.776 16.656,8.656 C16.656,9.536 15.929,10.250 15.031,10.250 ZM16.094,26.328 C16.094,27.217 15.373,27.937 14.484,27.937 C13.596,27.937 12.875,27.217 12.875,26.328 C12.875,25.439 13.596,24.719 14.484,24.719 C15.373,24.719 16.094,25.439 16.094,26.328 ZM5.375,18.812 C4.495,18.812 3.781,18.092 3.781,17.203 C3.781,16.314 4.495,15.594 5.375,15.594 C6.255,15.594 6.969,16.314 6.969,17.203 C6.969,18.092 6.255,18.812 5.375,18.812 Z"/>
<path fill-rule="evenodd"  fill="#ffffff"
 d="M134.066,26.514 L134.066,8.683 L137.815,8.683 L137.815,26.514 L134.066,26.514 ZM128.731,25.853 C127.658,26.422 126.440,26.706 125.079,26.706 C123.717,26.706 122.495,26.422 121.414,25.853 C120.332,25.285 119.487,24.495 118.878,23.486 C118.269,22.477 117.965,21.332 117.965,20.050 C117.965,18.768 118.269,17.622 118.878,16.613 C119.487,15.604 120.332,14.815 121.414,14.246 C122.495,13.677 123.717,13.393 125.079,13.393 C126.440,13.393 127.658,13.677 128.731,14.246 C129.804,14.815 130.646,15.604 131.255,16.613 C131.863,17.622 132.168,18.768 132.168,20.050 C132.168,21.332 131.863,22.477 131.255,23.486 C130.646,24.495 129.804,25.285 128.731,25.853 ZM127.446,17.442 C126.829,16.793 126.040,16.469 125.079,16.469 C124.117,16.469 123.324,16.793 122.699,17.442 C122.075,18.091 121.762,18.960 121.762,20.050 C121.762,21.139 122.075,22.008 122.699,22.657 C123.324,23.306 124.117,23.630 125.079,23.630 C126.040,23.630 126.829,23.306 127.446,22.657 C128.062,22.008 128.371,21.139 128.371,20.050 C128.371,18.960 128.062,18.091 127.446,17.442 ZM112.246,19.689 C112.246,18.664 112.021,17.899 111.573,17.394 C111.124,16.889 110.475,16.637 109.626,16.637 C108.681,16.637 107.928,16.930 107.367,17.514 C106.806,18.099 106.526,18.968 106.526,20.122 L106.526,26.514 L102.777,26.514 L102.777,13.585 L106.358,13.585 L106.358,15.099 C106.855,14.555 107.471,14.134 108.209,13.837 C108.945,13.541 109.754,13.393 110.636,13.393 C112.238,13.393 113.532,13.873 114.517,14.835 C115.502,15.796 115.995,17.222 115.995,19.112 L115.995,26.514 L112.246,26.514 L112.246,19.689 ZM96.241,19.689 C96.241,18.664 96.016,17.899 95.568,17.394 C95.119,16.889 94.471,16.637 93.622,16.637 C92.676,16.637 91.923,16.930 91.363,17.514 C90.802,18.099 90.522,18.968 90.522,20.122 L90.522,26.514 L86.773,26.514 L86.773,8.683 L90.522,8.683 L90.522,14.931 C91.018,14.434 91.619,14.054 92.324,13.789 C93.029,13.525 93.798,13.393 94.631,13.393 C96.233,13.393 97.527,13.873 98.512,14.835 C99.497,15.796 99.990,17.222 99.990,19.112 L99.990,26.514 L96.241,26.514 L96.241,19.689 ZM79.491,23.630 C80.773,23.630 81.742,23.038 82.399,21.852 L85.307,23.438 C84.842,24.463 84.101,25.264 83.084,25.841 C82.066,26.418 80.877,26.706 79.515,26.706 C78.137,26.706 76.900,26.422 75.802,25.853 C74.705,25.285 73.848,24.495 73.231,23.486 C72.614,22.477 72.306,21.332 72.306,20.050 C72.306,18.768 72.614,17.622 73.231,16.613 C73.848,15.604 74.705,14.815 75.802,14.246 C76.900,13.677 78.137,13.393 79.515,13.393 C80.877,13.393 82.066,13.677 83.084,14.246 C84.101,14.815 84.842,15.628 85.307,16.685 L82.399,18.247 C81.726,17.062 80.757,16.469 79.491,16.469 C78.514,16.469 77.705,16.790 77.064,17.430 C76.423,18.071 76.103,18.944 76.103,20.050 C76.103,21.155 76.423,22.028 77.064,22.669 C77.705,23.310 78.514,23.630 79.491,23.630 ZM61.516,21.107 C61.692,21.908 62.108,22.541 62.765,23.005 C63.422,23.470 64.239,23.702 65.217,23.702 C65.889,23.702 66.486,23.602 67.007,23.402 C67.527,23.202 68.012,22.885 68.461,22.453 L70.455,24.616 C69.238,26.009 67.459,26.706 65.120,26.706 C63.662,26.706 62.373,26.422 61.251,25.853 C60.130,25.285 59.265,24.495 58.656,23.486 C58.047,22.477 57.743,21.332 57.743,20.050 C57.743,18.784 58.043,17.643 58.644,16.625 C59.245,15.608 60.070,14.815 61.119,14.246 C62.168,13.677 63.342,13.393 64.640,13.393 C65.905,13.393 67.051,13.665 68.076,14.210 C69.101,14.755 69.906,15.536 70.492,16.553 C71.076,17.571 71.369,18.752 71.369,20.098 C71.369,20.146 71.345,20.482 71.297,21.107 L61.516,21.107 ZM66.779,16.962 C66.202,16.473 65.497,16.229 64.664,16.229 C63.814,16.229 63.102,16.469 62.525,16.950 C61.948,17.430 61.596,18.087 61.468,18.920 L67.836,18.920 C67.708,18.103 67.355,17.450 66.779,16.962 ZM53.417,26.514 L49.524,26.514 L49.524,12.864 L44.141,12.864 L44.141,9.692 L58.800,9.692 L58.800,12.864 L53.417,12.864 L53.417,26.514 Z"/>
</svg>